<svg xmlns="http://www.w3.org/2000/svg" xmlns:xlink="http://www.w3.org/1999/xlink" viewBox="0 0 346.76 75.22"><defs><style>.cls-1{fill:url(#radial-gradient);}.cls-2{fill:url(#linear-gradient);}.cls-3{fill:url(#radial-gradient-2);}.cls-4{fill:url(#linear-gradient-2);}.cls-5{fill:url(#radial-gradient-3);}.cls-6{fill:url(#linear-gradient-3);}.cls-7{fill:url(#radial-gradient-4);}.cls-8{fill:url(#linear-gradient-4);}.cls-9{fill:url(#radial-gradient-5);}.cls-10{fill:url(#linear-gradient-5);}.cls-11{fill:url(#radial-gradient-6);}.cls-12{fill:url(#linear-gradient-6);}.cls-13,.cls-15{fill:#fff;}.cls-14,.cls-16{fill:#101820;}.cls-15,.cls-16{fill-rule:evenodd;}</style><radialGradient id="radial-gradient" cx="312.96" cy="28.83" r="26.04" gradientTransform="matrix(1, 0, 0, -1, 0, 55.1)" gradientUnits="userSpaceOnUse"><stop offset="0" stop-color="#e42f43"/><stop offset="1" stop-color="#da2d3f"/></radialGradient><linearGradient id="linear-gradient" x1="312.96" y1="2.79" x2="312.96" y2="54.87" gradientTransform="matrix(1, 0, 0, -1, 0, 55.1)" gradientUnits="userSpaceOnUse"><stop offset="0" stop-color="#8f1a26"/><stop offset="0.04" stop-color="#8f1a26" stop-opacity="0.83"/><stop offset="0.1" stop-color="#8f1a26" stop-opacity="0.61"/><stop offset="0.16" stop-color="#8f1a26" stop-opacity="0.42"/><stop offset="0.24" stop-color="#8f1a26" stop-opacity="0.26"/><stop offset="0.32" stop-color="#8f1a26" stop-opacity="0.14"/><stop offset="0.43" stop-color="#8f1a26" stop-opacity="0.06"/><stop offset="0.58" stop-color="#8f1a26" stop-opacity="0.01"/><stop offset="1" stop-color="#8f1a26" stop-opacity="0"/></linearGradient><radialGradient id="radial-gradient-2" cx="255.66" cy="29.06" r="26.04" gradientTransform="matrix(1, 0, 0, -1, 0, 55.1)" gradientUnits="userSpaceOnUse"><stop offset="0" stop-color="#fff"/><stop offset="0.7" stop-color="#fdfdfd"/><stop offset="0.95" stop-color="#f6f6f6"/><stop offset="1" stop-color="#f4f4f4"/></radialGradient><linearGradient id="linear-gradient-2" x1="255.66" y1="3.02" x2="255.66" y2="55.1" gradientTransform="matrix(1, 0, 0, -1, 0, 55.1)" gradientUnits="userSpaceOnUse"><stop offset="0" stop-color="#939392"/><stop offset="0.04" stop-color="#939392" stop-opacity="0.8"/><stop offset="0.1" stop-color="#939392" stop-opacity="0.59"/><stop offset="0.17" stop-color="#939392" stop-opacity="0.4"/><stop offset="0.24" stop-color="#939392" stop-opacity="0.25"/><stop offset="0.33" stop-color="#939392" stop-opacity="0.14"/><stop offset="0.43" stop-color="#939392" stop-opacity="0.06"/><stop offset="0.58" stop-color="#939392" stop-opacity="0.01"/><stop offset="1" stop-color="#939392" stop-opacity="0"/></linearGradient><radialGradient id="radial-gradient-3" cx="198.36" cy="29.06" r="26.04" xlink:href="#radial-gradient-2"/><linearGradient id="linear-gradient-3" x1="198.36" y1="3.02" x2="198.36" y2="55.1" xlink:href="#linear-gradient-2"/><radialGradient id="radial-gradient-4" cx="141" cy="29.06" r="26.04" xlink:href="#radial-gradient-2"/><linearGradient id="linear-gradient-4" x1="141" y1="3.02" x2="141" y2="55.1" xlink:href="#linear-gradient-2"/><radialGradient id="radial-gradient-5" cx="83.4" cy="29.06" r="26.04" xlink:href="#radial-gradient-2"/><linearGradient id="linear-gradient-5" x1="83.4" y1="3.02" x2="83.4" y2="55.1" xlink:href="#linear-gradient-2"/><radialGradient id="radial-gradient-6" cx="26.04" cy="29.06" r="26.04" xlink:href="#radial-gradient-2"/><linearGradient id="linear-gradient-6" x1="26.04" y1="3.02" x2="26.04" y2="55.1" xlink:href="#linear-gradient-2"/></defs><g id="Layer_2" data-name="Layer 2"><g id="Layer_1-2" data-name="Layer 1"><path class="cls-1" d="M313,.23h0a26,26,0,0,1,26,26h0a26,26,0,0,1-26,26h0a26,26,0,0,1-26-26h0A26,26,0,0,1,313,.23Z"/><path class="cls-2" d="M313,.23h0a26,26,0,0,1,26,26h0a26,26,0,0,1-26,26h0a26,26,0,0,1-26-26h0A26,26,0,0,1,313,.23Z"/><path class="cls-3" d="M255.66,0h0a26,26,0,0,1,26,26h0a26,26,0,0,1-26,26h0a26,26,0,0,1-26-26h0A26,26,0,0,1,255.66,0Z"/><path class="cls-4" d="M255.66,0h0a26,26,0,0,1,26,26h0a26,26,0,0,1-26,26h0a26,26,0,0,1-26-26h0A26,26,0,0,1,255.66,0Z"/><path class="cls-5" d="M198.36,0h0a26,26,0,0,1,26,26h0a26,26,0,0,1-26,26h0a26,26,0,0,1-26-26h0A26,26,0,0,1,198.36,0Z"/><path class="cls-6" d="M198.36,0h0a26,26,0,0,1,26,26h0a26,26,0,0,1-26,26h0a26,26,0,0,1-26-26h0A26,26,0,0,1,198.36,0Z"/><path class="cls-7" d="M141,0h0a26,26,0,0,1,26,26h0a26,26,0,0,1-26,26h0a26,26,0,0,1-26-26h0A26,26,0,0,1,141,0Z"/><path class="cls-8" d="M141,0h0a26,26,0,0,1,26,26h0a26,26,0,0,1-26,26h0a26,26,0,0,1-26-26h0A26,26,0,0,1,141,0Z"/><path class="cls-9" d="M83.4,0h0a26,26,0,0,1,26,26h0a26,26,0,0,1-26,26h0a26,26,0,0,1-26-26h0A26,26,0,0,1,83.4,0Z"/><path class="cls-10" d="M83.4,0h0a26,26,0,0,1,26,26h0a26,26,0,0,1-26,26h0a26,26,0,0,1-26-26h0A26,26,0,0,1,83.4,0Z"/><path class="cls-11" d="M26,0h0a26,26,0,0,1,26,26h0a26,26,0,0,1-26,26h0A26,26,0,0,1,0,26H0A26,26,0,0,1,26,0Z"/><path class="cls-12" d="M26,0h0a26,26,0,0,1,26,26h0a26,26,0,0,1-26,26h0A26,26,0,0,1,0,26H0A26,26,0,0,1,26,0Z"/><path class="cls-13" d="M338.37,59h-55V74.63h55Z"/><path class="cls-14" d="M203.26,58.63V75.22H338.93V58.63ZM337.65,74H285.54V59.9h52.11Z"/><path class="cls-15" d="M207.14,61h6.38a4.32,4.32,0,0,1,3.12,1,3.7,3.7,0,0,1,.79,1.3,4.26,4.26,0,0,1-.92,4.46,4.91,4.91,0,0,1-3.46,1.06H211v4.62H207.1V61Zm3.85,5.3h.94a2.45,2.45,0,0,0,1.56-.39,1.25,1.25,0,0,0,.34-.45,1.46,1.46,0,0,0,.11-.55,1.44,1.44,0,0,0-.1-.54,1.7,1.7,0,0,0-.29-.46,2,2,0,0,0-1.46-.41H211v2.8Z"/><path class="cls-15" d="M220.43,66.83a5.71,5.71,0,0,1,.31-2.56,5.81,5.81,0,0,1,1.37-2.17,5.71,5.71,0,0,1,2.17-1.38,5.86,5.86,0,0,1,2.56-.32,6.36,6.36,0,0,1,2.56.35,5.88,5.88,0,0,1,3.9,6,7.86,7.86,0,0,1-.73,3.57,5.34,5.34,0,0,1-2.12,2.17,7,7,0,0,1-3.45.78,8,8,0,0,1-3.48-.67,5.33,5.33,0,0,1-2.24-2.12,7,7,0,0,1-.85-3.63Zm3.84,0a4.11,4.11,0,0,0,.7,2.7,2.31,2.31,0,0,0,.85.63,2.36,2.36,0,0,0,1.05.19,2.46,2.46,0,0,0,1-.18,2.44,2.44,0,0,0,.87-.62,4.6,4.6,0,0,0,.69-2.89,3.93,3.93,0,0,0-.71-2.57,2.44,2.44,0,0,0-.87-.62,2.36,2.36,0,0,0-1-.19,2.48,2.48,0,0,0-1,.2,2.24,2.24,0,0,0-.83.63,4.11,4.11,0,0,0-.7,2.72Z"/><path class="cls-15" d="M235.82,60.89h3.64l1.31,6.94,1.88-6.94h3.64l1.92,6.94,1.31-6.94h3.63l-2.7,12.42h-3.8l-2.18-7.82-2.17,7.82h-3.76Z"/><path class="cls-15" d="M256.65,60.89h10.29v2.66H260.5v2h6v2.5h-6v2.5h6.63v2.82H256.65Z"/><path class="cls-15" d="M270.5,73.32V60.89h6.39a8.92,8.92,0,0,1,2.72.31,2.82,2.82,0,0,1,1.52,1.13,3.46,3.46,0,0,1,.58,2,3.34,3.34,0,0,1-1.65,3,4.65,4.65,0,0,1-1.35.49,2.6,2.6,0,0,1,1.61,1.11,5.91,5.91,0,0,1,.54.77l1.86,3.61h-4.29l-2-3.8a2.92,2.92,0,0,0-.7-1,1.66,1.66,0,0,0-.94-.29h-.34v5Zm3.85-7.4H276a6.72,6.72,0,0,0,1-.16,1.06,1.06,0,0,0,.62-.39,1.21,1.21,0,0,0,.24-.73,1.08,1.08,0,0,0-.09-.5,1,1,0,0,0-.29-.42A2.31,2.31,0,0,0,276,63.4h-1.69v2.52Z"/><path class="cls-16" d="M290.65,62.22v4.7h2a4.48,4.48,0,0,0,2.53-.57,2,2,0,0,0,.81-1.77,2,2,0,0,0-.82-1.81,4.72,4.72,0,0,0-2.63-.57ZM289.26,61h3a15.71,15.71,0,0,1,2.06.11,4.81,4.81,0,0,1,1.33.43,3.83,3.83,0,0,1,1.43,1.28,3.25,3.25,0,0,1,.47,1.72,3.34,3.34,0,0,1-1.7,3,4.3,4.3,0,0,1-1.34.48,11.16,11.16,0,0,1-2,.15h-1.86v5.16h-1.39Z"/><path class="cls-16" d="M306.65,73.14h-6.4V60.8h1.4V72h5Z"/><path class="cls-16" d="M310.3,73h-1.47l5.49-12.34H316L321.43,73H320l-1.69-3.88H312L310.28,73Zm7.49-5-2.68-6.19L312.43,68Z"/><path class="cls-16" d="M329.35,68.83v4.54H328V68.82L323.47,61h1.59l3.59,6.41L332.3,61h1.54Z"/><path class="cls-14" d="M339.23,46.65a3.87,3.87,0,0,1,.85-1.23,4,4,0,0,1,1.25-.82,4.15,4.15,0,0,1,1.52-.29,3.75,3.75,0,0,1,1.48.28,3.93,3.93,0,0,1,1.27.83,3.8,3.8,0,0,1,1.16,2.77,4.12,4.12,0,0,1-.31,1.55A4,4,0,0,1,345.6,51a3.75,3.75,0,0,1-1.24.81,4,4,0,0,1-3,0,3.85,3.85,0,0,1-1.25-.81,3.56,3.56,0,0,1-.85-1.25,4,4,0,0,1,0-3.09Zm.64,2.87a3.23,3.23,0,0,0,.68,1,3.09,3.09,0,0,0,1,.71,3.32,3.32,0,0,0,1.28.25,3.22,3.22,0,0,0,1.26-.25,3.32,3.32,0,0,0,1-.71,3.61,3.61,0,0,0,.68-1,3.81,3.81,0,0,0,.24-1.33,3.66,3.66,0,0,0-.24-1.31,3.61,3.61,0,0,0-.68-1,3.31,3.31,0,0,0-1-.73,3.11,3.11,0,0,0-1.24-.27,3.33,3.33,0,0,0-1.28.26,2.92,2.92,0,0,0-1,.7,3.23,3.23,0,0,0-.68,1,4,4,0,0,0,0,2.68Zm3.22-3.6a1.92,1.92,0,0,1,1.21.33,1.21,1.21,0,0,1,.39,1,1,1,0,0,1-.08.49,1,1,0,0,1-.27.41,1.67,1.67,0,0,1-.85.34l1.3,2H344l-1.24-2H342v2h-.71V45.92Zm-.31,2h.45a1.24,1.24,0,0,0,.38-.09.73.73,0,0,0,.27-.22.87.87,0,0,0,.1-.42.57.57,0,0,0-.08-.34.56.56,0,0,0-.24-.24.92.92,0,0,0-.32-.1H342V48Z"/><path class="cls-13" d="M291.23,35.07c-2.07-6.7-1.62-12.6,0-18.81,1.72-.1,3.44-.18,5.16-.25,2.45-.1,4,.91,3.6,4.88a7.35,7.35,0,0,1-1.76,4.33c1.26.58,1.94,2.46,2.11,4.64.36,4.49-1,6-3.84,5.71C294.75,35.41,293,35.22,291.23,35.07Zm2.42-14.52a28.7,28.7,0,0,0-.39,3.21h1.6c.77,0,1.34-.56,1.46-1.71.16-1.52-.54-1.55-1.35-1.54Zm-.41,6.73a30.61,30.61,0,0,0,.39,3.58l1.65.08c.93,0,1.57-.24,1.43-1.72-.14-1.73-1-1.87-2.25-1.91Z"/><path class="cls-13" d="M301.09,35.22c.09-6.34,2.32-12.78,4.91-19.28l4.58-.06c1.23,6.49,3.46,13,4.92,19.53H311c-.23-.86-.46-1.72-.68-2.58h-4.69c-.09.85-.15,1.7-.19,2.55Zm6.73-13.45c-.6,2.33-1.13,4.65-1.53,7h3.07C308.78,26.4,308.24,24.08,307.82,21.77Z"/><path class="cls-13" d="M317,35.49A180.83,180.83,0,0,0,317,16h4.17a74.23,74.23,0,0,1,.46,14.9l6.09-.08a44.68,44.68,0,0,1-.83,4.45C323.65,35.39,320.32,35.46,317,35.49Z"/><path class="cls-13" d="M328.09,35.22a44.91,44.91,0,0,0,.08-19c1.07.06,2.36.2,3.43.28a32.83,32.83,0,0,1,.63,14.05h4.38a29.46,29.46,0,0,1-1.5,4.29C332.58,35,330.65,35.06,328.09,35.22Z"/><path class="cls-14" d="M28.72,10.46c-1.33,0-2.55,0-3.72-.07a61.06,61.06,0,0,0-9.27.23h-.28l-.08.28C13.7,17.62,12.43,26,14.51,42.15v.4h.74c1.61,0,3.11.09,4.63.09,1.36,0,2.74,0,4.23-.13h.4v-.4c-.08-3.1-.08-6.21-.08-9.26h4.71c4.8-.06,8.39-1.3,10.69-3.69a10.14,10.14,0,0,0,2.6-7.47C42.16,14.91,36.91,10.63,28.72,10.46Zm3.71,10.61a3.29,3.29,0,0,1-.22,1.28,3.44,3.44,0,0,1-.7,1.1,4.79,4.79,0,0,1-3.36,1.24H24.36c0-1.19.05-2.48.08-3.74,0-1,0-1.9.07-2.79H27C28.65,18.13,32.43,18.39,32.43,21.07Z"/><path class="cls-14" d="M83.52,9.47A16.33,16.33,0,0,0,68.29,19.55,16.16,16.16,0,0,0,67,25.84c.12,9.63,7,16.7,16.49,16.81a16.53,16.53,0,0,0,16.53-16.73h0A16.58,16.58,0,0,0,83.52,9.47Zm-5.6,16.41c0-3.9,1.45-8.06,5.53-8.08h.2a4.56,4.56,0,0,1,3.28,1.3c1.42,1.39,2.28,3.93,2.28,6.78,0,3.13-.74,8.39-5.64,8.41C78.32,34.29,77.92,27.84,77.92,25.88Z"/><path class="cls-14" d="M158.82,11.45h-.3c-2.53-.08-3-.09-5.65-.15h-1.94v.42a57,57,0,0,1-1.66,16.35c-.69-3.87-1.61-7.38-2.57-11.06-.46-1.79-.94-3.63-1.42-5.6l-.07-.27h-.28a71.21,71.21,0,0,0-7.45,0h-.29l-.07.27c-.6,2.48-1.26,4.76-1.89,7-.93,3.23-1.81,6.3-2.45,9.69a57.15,57.15,0,0,1-1.35-16.44v-.41h-7.49l-.08.3c-2.15,8.13-.26,17.9,6,30.76l.11.21h.23c2.07,0,3.13.07,4.15.07s1.86,0,3.54-.06h.34v-.34c.55-5.6,1.67-11.37,2.77-17,1.12,5.59,2.25,11.36,2.81,17v.36h.36c1.58-.07,3-.07,4.42-.07h4.23l.1-.22c5.57-11.5,7.65-22.32,5.87-30.45Z"/><path class="cls-14" d="M195.94,34.42V30.34c4.14,0,8.35,0,12.51-.1h.4V22.32h-.42c-4.1-.1-8.31-.14-12.5-.11V18.55c3.28,0,6.45,0,9.8.14l5,.11h.5l-.08-.49a36.33,36.33,0,0,0-1.93-6.87l-.09-.24h-.25a78.13,78.13,0,0,0-22.13,0h-.32l-.06.29a67.54,67.54,0,0,0,0,29.94l.07.28h.28a90.46,90.46,0,0,0,11.86.85,85.68,85.68,0,0,0,11.32-.8h.25l.09-.23a25.22,25.22,0,0,0,1.41-7.09l0-.48h-.49C206.13,34.34,201,34.48,195.94,34.42Z"/><path class="cls-14" d="M270.43,35.55c.45-5.64-1.77-7.08-4.65-8.2a6.86,6.86,0,0,0,4.45-7.22c-.57-6.6-5.14-9.91-14-10.12h-1.72a47.78,47.78,0,0,0-10.41.76h-.24l-.07.23c-3.48,10.34-3.8,21.51-.86,30.66l.07.24h.25a39.08,39.08,0,0,0,7,.6h2.07v-.43c-.17-3.56-.23-7.21-.28-10.74v-.1h2.75c2,0,3.29.36,4,1.12.9.93,1,2.54,1,4.68a20.65,20.65,0,0,0,.2,5.15l.1.32h.33c1-.07,2-.1,2.93-.13a55.23,55.23,0,0,0,6.3-.42h.3l.3-1.73-.57.1h0a9.08,9.08,0,0,1,.2-1.14,27.38,27.38,0,0,0,.63-3.6Zm-10.21-14.1a2.34,2.34,0,0,1-.11.87,2.21,2.21,0,0,1-.45.75c-.65.66-1.94,1-4,1H252c0-1.77,0-3.6.09-5.57,1.45,0,2.92-.06,4.35-.06C258.78,18.45,260.18,19.55,260.22,21.45Z"/></g></g></svg>